<svg viewBox="0 0 11 11" xmlns="http://www.w3.org/2000/svg"><path d="M0 8.879V5c0-.549.451-1 1-1h1c.549 0 1 .451 1 1h1v1.5H3c-.398 0-.779.158-1.061.439L0 8.879ZM6 6.5V5h2c.549 0 1 .451 1 1v.5H6Z" fill="#ca7e77"/><path d="M.293 9.293A1.002 1.002 0 0 0 0 10c0 .549.451 1 1 1h7c.265 0 .52-.105.707-.293l2-2C10.894 8.52 11 8.265 11 8c0-.549-.451-1-1-1H3a.997.997 0 0 0-.707.293l-2 2Z" fill="#f6be6e"/><path d="M4.5 6.5v-2C4.5 2.568 6.068 1 8 1a3.512 3.512 0 0 1-2.5 3.355V6.5h-1Zm.538-4.687c-.392.432-.691.95-.865 1.522C2.898 2.796 2 1.505 2 0c1.299 0 2.434.73 3.038 1.813Z" fill="#309f76"/></svg>