<svg xmlns="http://www.w3.org/2000/svg" viewBox="0 0 11 11"><path d="M0 5c0-.549.451-1 1-1h1a1 1 0 01.706.294L3.412 5H4v1.5H3c-.398 0-.779.158-1.061.439L0 8.879V5zm6 0h2c.549 0 1 .451 1 1v.5H6V5z" fill="#ca7e77"/><path d="M3 7h7c.549 0 1 .451 1 1 0 .265-.106.52-.293.707l-2 2A.997.997 0 018 11H1c-.549 0-1-.451-1-1 0-.265.106-.519.293-.707l2-2A.997.997 0 013 7z" fill="#f6be6e"/><path d="M8 1a3.501 3.501 0 00-3.5 3.5v2h1V4.355A3.52 3.52 0 008 1zM2 0c0 1.505.898 2.796 2.173 3.335.174-.572.473-1.09.865-1.522C4.434.73 3.299 0 2 0z" fill="#309f76"/></svg>