<svg viewBox="0 0 70.345 12" xmlns="http://www.w3.org/2000/svg"><path d="M1 8.879V5c0-.549.451-1 1-1h1c.549 0 1 .451 1 1h1v1.5H4c-.398 0-.779.158-1.061.439L1 8.879ZM7 6.5V5h2c.549 0 1 .451 1 1v.5H7Z" fill="#ca7e77"/><path d="M1.293 9.293A1.002 1.002 0 0 0 1 10c0 .549.451 1 1 1h7c.265 0 .52-.105.707-.293l2-2C11.894 8.52 12 8.265 12 8c0-.549-.451-1-1-1H4a.997.997 0 0 0-.707.293l-2 2Z" fill="#f6be6e"/><path d="M5.5 6.5v-2C5.5 2.568 7.068 1 9 1a3.512 3.512 0 0 1-2.5 3.355V6.5h-1Zm.538-4.687c-.392.432-.691.95-.865 1.522C3.898 2.796 3 1.505 3 0c1.299 0 2.434.73 3.038 1.813ZM15 10V3.092c0-.225.033-.408.1-.548a.613.613 0 0 1 .312-.312c.144-.067.327-.1.548-.1h3.694c.25 0 .435.056.554.169a.547.547 0 0 1 .185.433.57.57 0 0 1-.185.443c-.119.109-.304.163-.554.163h-3.087v1.979h2.581c.239 0 .417.055.533.164a.542.542 0 0 1 .179.427c0 .18-.06.322-.179.428-.12.105-.298.158-.533.158h-2.581v2.549c0 .324-.074.564-.221.723a.731.731 0 0 1-.56.232H15Zm6.647-6.528a.769.769 0 0 1-.517-.184c-.141-.124-.211-.298-.211-.523 0-.204.072-.371.216-.501a.739.739 0 0 1 .512-.201c.186 0 .352.06.496.18.144.119.216.293.216.522 0 .222-.07.396-.211.523a.735.735 0 0 1-.501.184ZM21.631 10a.66.66 0 0 1-.517-.227c-.13-.151-.195-.368-.195-.649V5.003c0-.285.065-.5.195-.644a.675.675 0 0 1 .517-.217c.211 0 .385.073.523.217.137.144.205.345.205.601V10h-.728Zm1.676 0V2.876c0-.288.063-.507.19-.654A.66.66 0 0 1 24.02 2c.218 0 .394.074.527.222.134.144.201.362.201.654v6.248c0 .292-.069.512-.206.66a.68.68 0 0 1-.522.216h-.713Zm6.41-2.575h-2.818c.003.327.068.615.195.865.13.25.301.438.512.565.214.127.45.19.707.19.172 0 .329-.019.47-.058.144-.042.283-.106.416-.19a3.35 3.35 0 0 0 .37-.28c.112-.098.258-.232.438-.401a.473.473 0 0 1 .316-.095c.148 0 .268.041.359.121a.434.434 0 0 1 .138.343c0 .131-.051.284-.154.46a1.845 1.845 0 0 1-.464.501c-.204.158-.463.29-.776.396a3.326 3.326 0 0 1-1.071.158c-.925 0-1.645-.264-2.158-.792-.514-.527-.771-1.243-.771-2.147 0-.426.064-.82.19-1.182.127-.366.312-.679.554-.94.243-.26.542-.459.898-.596a3.176 3.176 0 0 1 1.182-.211c.562 0 1.044.12 1.446.359.404.235.707.542.907.918.201.376.301.76.301 1.15 0 .363-.104.598-.311.707-.208.106-.5.159-.876.159Zm-2.818-.818h2.612c-.035-.493-.169-.86-.401-1.103-.229-.246-.531-.369-.908-.369-.359 0-.654.124-.886.374-.229.246-.368.612-.417 1.098Zm14.006.116v1.483c0 .197-.019.355-.058.475a.748.748 0 0 1-.216.316 1.936 1.936 0 0 1-.396.275 6.273 6.273 0 0 1-1.351.554A5.45 5.45 0 0 1 37.47 10a4.608 4.608 0 0 1-1.626-.274 3.414 3.414 0 0 1-1.25-.797 3.547 3.547 0 0 1-.797-1.267A4.773 4.773 0 0 1 33.522 6c0-.602.09-1.152.27-1.652.179-.499.443-.923.791-1.271a3.433 3.433 0 0 1 1.272-.797c.499-.187 1.066-.28 1.699-.28.521 0 .982.07 1.383.211.401.137.726.311.976.523.25.211.438.434.565.67.126.235.19.445.19.628a.672.672 0 0 1-.222.506.731.731 0 0 1-.523.206.723.723 0 0 1-.585-.301 6.338 6.338 0 0 0-.491-.686 1.57 1.57 0 0 0-.544-.39c-.225-.106-.513-.159-.865-.159a2.38 2.38 0 0 0-.971.19 2.001 2.001 0 0 0-.733.544 2.474 2.474 0 0 0-.465.871 3.913 3.913 0 0 0-.158 1.145c0 .907.207 1.606.623 2.095.418.489 1 .733 1.746.733a3.53 3.53 0 0 0 1.019-.142 5.17 5.17 0 0 0 .971-.407V6.982h-1.214c-.292 0-.514-.044-.665-.132-.148-.088-.222-.238-.222-.449 0-.172.062-.315.185-.427.127-.113.297-.169.512-.169h1.778c.218 0 .403.019.554.058a.614.614 0 0 1 .365.258c.095.134.142.335.142.602Zm4.379 2.551a4.354 4.354 0 0 1-.898.525 2.835 2.835 0 0 1-1.093.201c-.369 0-.694-.072-.976-.216a1.631 1.631 0 0 1-.644-.597 1.539 1.539 0 0 1-.227-.812c0-.394.125-.73.375-1.008s.593-.465 1.029-.56c.092-.021.319-.068.681-.142.362-.074.672-.141.929-.201.26-.063.541-.139.844-.227-.018-.379-.095-.657-.232-.833-.134-.18-.414-.269-.839-.269-.366 0-.642.051-.829.153a1.372 1.372 0 0 0-.475.459c-.13.204-.223.339-.279.406-.053.063-.169.095-.349.095a.63.63 0 0 1-.422-.153.519.519 0 0 1-.174-.401c0-.253.09-.5.269-.739.18-.239.459-.436.839-.591.38-.155.853-.232 1.42-.232.633 0 1.131.076 1.493.227.362.148.618.383.765.707.152.324.227.753.227 1.288V10h-.728a.66.66 0 0 1-.512-.222c-.109-.121-.174-.288-.194-.504Zm.02-2.171c-.211.077-.519.16-.924.248a16.57 16.57 0 0 0-.833.19 1.107 1.107 0 0 0-.444.237c-.14.116-.211.28-.211.491 0 .218.083.405.248.559.166.152.382.227.649.227.285 0 .547-.061.787-.184.242-.127.42-.289.533-.486.13-.218.195-.577.195-1.076v-.206Zm3.766.818v1.203c0 .292-.069.512-.206.66a.69.69 0 0 1-.523.216h-.712V5.113c0-.647.234-.971.702-.971.239 0 .411.076.517.227.106.152.164.375.174.671.173-.296.348-.519.528-.671.183-.151.426-.227.728-.227.303 0 .596.076.881.227.285.152.428.352.428.602a.577.577 0 0 1-.185.438.56.56 0 0 1-.39.169c-.053 0-.182-.032-.386-.095-.2-.067-.378-.1-.533-.1a.778.778 0 0 0-.517.168 1.06 1.06 0 0 0-.311.491 3.44 3.44 0 0 0-.153.781c-.028.299-.042.665-.042 1.098Zm7.034 1.256v-.143a3.678 3.678 0 0 1-.575.544 2.225 2.225 0 0 1-1.33.422c-.345 0-.665-.072-.96-.216a2.269 2.269 0 0 1-.76-.628 2.898 2.898 0 0 1-.491-.955 4.145 4.145 0 0 1-.164-1.188c0-.9.22-1.602.66-2.105.44-.503 1.019-.755 1.736-.755.415 0 .765.072 1.05.216.285.141.563.359.834.655V2.897c0-.295.058-.519.174-.67A.61.61 0 0 1 56.785 2c.218 0 .385.07.501.211.12.137.18.341.18.612V10h-.681a.64.64 0 0 1-.491-.211c-.127-.144-.19-.348-.19-.612ZM53.27 7.061c0 .39.06.723.18.997.123.274.29.482.501.623.211.137.442.206.691.206.254 0 .484-.066.692-.196.211-.133.378-.336.501-.607.127-.274.19-.615.19-1.023 0-.384-.063-.713-.19-.987a1.436 1.436 0 0 0-.507-.633 1.186 1.186 0 0 0-.696-.222c-.264 0-.5.076-.707.227-.208.148-.37.362-.486.644a2.584 2.584 0 0 0-.169.971Zm9.122.364h-2.818c.004.327.069.615.196.865.13.25.3.438.511.565.215.127.451.19.708.19.172 0 .329-.019.469-.058a1.66 1.66 0 0 0 .417-.19 3.35 3.35 0 0 0 .37-.28c.112-.098.258-.232.438-.401a.471.471 0 0 1 .316-.095c.148 0 .268.041.359.121a.436.436 0 0 1 .137.343c0 .131-.051.284-.153.46a1.86 1.86 0 0 1-.464.501c-.204.158-.463.29-.776.396-.31.105-.667.158-1.071.158-.925 0-1.645-.264-2.158-.792-.514-.527-.771-1.243-.771-2.147 0-.426.063-.82.19-1.182.127-.366.311-.679.554-.94.243-.26.542-.459.897-.596.356-.141.75-.211 1.182-.211.563 0 1.045.12 1.446.359.405.235.707.542.908.918.2.376.301.76.301 1.15 0 .363-.104.598-.312.707-.207.106-.499.159-.876.159Zm-2.818-.818h2.612c-.035-.493-.168-.86-.401-1.103-.228-.246-.531-.369-.907-.369-.359 0-.655.124-.887.374-.228.246-.367.612-.417 1.098Zm5.988-1.668v.174c.253-.334.529-.578.828-.733a2.215 2.215 0 0 1 1.04-.238c.38 0 .719.083 1.018.249.299.165.523.399.67.701.095.176.157.366.185.57.028.204.042.465.042.781v2.681c0 .288-.067.507-.2.654a.65.65 0 0 1-.512.222.663.663 0 0 1-.522-.227c-.134-.151-.201-.368-.201-.649V6.723c0-.475-.067-.837-.201-1.087-.13-.253-.392-.38-.786-.38-.257 0-.491.077-.702.232a1.3 1.3 0 0 0-.464.628c-.07.215-.106.616-.106 1.203v1.805c0 .292-.068.512-.205.66a.681.681 0 0 1-.523.216h-.712V4.96c0-.274.06-.478.179-.612a.619.619 0 0 1 .491-.206.632.632 0 0 1 .586.359c.063.12.095.266.095.438Z" fill="#309f76"/></svg>