<svg xmlns="http://www.w3.org/2000/svg" viewBox="0 0 85.33 12"><path d="M1 8.879V5c0-.549.451-1 1-1h1c.549 0 1 .451 1 1h1v1.5H4c-.398 0-.779.158-1.061.439L1 8.879ZM7 6.5V5h2c.549 0 1 .451 1 1v.5H7Z" fill="#ca7e77"/><path d="M1.293 9.293A1.003 1.003 0 0 0 1 10c0 .549.451 1 1 1h7c.265 0 .52-.105.707-.293l2-2C11.894 8.52 12 8.265 12 8c0-.549-.451-1-1-1H4a.997.997 0 0 0-.707.293l-2 2Z" fill="#f6be6e"/><path d="M5.5 6.5v-2C5.5 2.568 7.068 1 9 1a3.52 3.52 0 0 1-2.5 3.355V6.5h-1Zm.538-4.687c-.392.432-.691.95-.865 1.522C3.898 2.796 3 1.505 3 0c1.299 0 2.434.73 3.038 1.813ZM77.804 11V4.595c0-.349.076-.609.228-.781.152-.173.36-.259.624-.259.161 0 .306.038.436.114.13.076.234.19.312.342.078.152.117.338.117.557v.221c.322-.424.674-.736 1.056-.935a2.817 2.817 0 0 1 1.318-.299c.483 0 .915.105 1.295.316.38.21.664.507.852.892.12.223.199.465.234.724.036.259.054.59.054.993v3.407c0 .366-.084.644-.252.831a.833.833 0 0 1-.653.282.843.843 0 0 1-.664-.288c-.17-.193-.255-.468-.255-.825V6.835c0-.604-.084-1.065-.252-1.385-.167-.32-.502-.48-1.002-.48-.327 0-.624.098-.893.292a1.68 1.68 0 0 0-.59.802c-.089.272-.134.782-.134 1.529v2.294c0 .371-.086.649-.258.835a.87.87 0 0 1-.667.278h-.906Zm-2.311-3.273h-3.582c.005.416.089.783.252 1.1.163.317.38.557.651.718.27.161.569.241.895.241.219 0 .419-.026.6-.077.181-.051.357-.132.527-.242a3.85 3.85 0 0 0 .469-.352c.143-.125.329-.295.557-.509.094-.081.228-.121.402-.121.188 0 .34.051.456.154.117.103.175.248.175.436 0 .166-.065.359-.195.58a2.27 2.27 0 0 1-.587.637c-.261.204-.59.373-.986.507-.395.134-.85.201-1.364.201-1.176 0-2.091-.335-2.744-1.006-.652-.671-.979-1.581-.979-2.73 0-.541.081-1.043.242-1.505.161-.463.395-.86.704-1.191a3.036 3.036 0 0 1 1.14-.761 4.084 4.084 0 0 1 1.502-.265c.716 0 1.33.151 1.841.453.512.301.896.692 1.151 1.17s.382.966.382 1.462c0 .461-.132.759-.396.895-.264.137-.635.205-1.113.205Zm-3.582-1.04h3.32c-.044-.626-.213-1.094-.506-1.405-.293-.31-.678-.466-1.157-.466-.456 0-.83.158-1.123.473-.293.315-.471.781-.534 1.398ZM68.366 11a.799.799 0 0 1-.62-.272c-.163-.181-.245-.439-.245-.774v-.181c-.246.281-.488.51-.728.687a2.73 2.73 0 0 1-1.693.54c-.438 0-.844-.093-1.217-.278a2.85 2.85 0 0 1-.97-.795 3.637 3.637 0 0 1-.62-1.214 5.178 5.178 0 0 1-.211-1.509c0-1.145.279-2.037.838-2.676.559-.64 1.295-.959 2.207-.959.527 0 .972.09 1.334.271.362.181.716.46 1.06.835V1.973c0-.376.075-.66.225-.852.149-.193.363-.289.64-.289s.491.089.641.265c.149.177.224.437.224.782V11h-.865Zm-4.467-3.736c0 .497.078.919.232 1.268.154.349.365.611.634.788.268.177.561.265.878.265.322 0 .616-.084.882-.252.266-.167.479-.424.637-.771.159-.346.238-.779.238-1.298 0-.487-.079-.906-.238-1.257-.158-.351-.373-.62-.644-.805a1.531 1.531 0 0 0-.888-.278 1.5 1.5 0 0 0-.899.285c-.264.19-.468.462-.614.818a3.256 3.256 0 0 0-.218 1.237ZM56.798 11V4.789c0-.822.297-1.234.892-1.234.304 0 .523.096.657.289.135.192.208.476.222.852.219-.376.444-.66.674-.852.23-.193.537-.289.922-.289s.758.096 1.12.289c.362.192.543.447.543.764a.73.73 0 0 1-.231.554.72.72 0 0 1-.5.218c-.067 0-.229-.042-.486-.124a2.256 2.256 0 0 0-.681-.125c-.268 0-.487.071-.657.212-.17.141-.302.35-.396.627a4.384 4.384 0 0 0-.194.989c-.036.382-.054.849-.054 1.398v1.53c0 .371-.087.649-.261.835a.875.875 0 0 1-.664.278h-.906Zm-2.98-.922c-.391.289-.77.511-1.139.664a3.588 3.588 0 0 1-1.391.258c-.47 0-.882-.093-1.238-.278a2.037 2.037 0 0 1-.821-.755 1.951 1.951 0 0 1-.289-1.033c0-.501.159-.928.476-1.281.318-.353.754-.59 1.308-.711.117-.027.405-.087.866-.181.46-.094.855-.18 1.183-.258.329-.078.686-.173 1.07-.285-.022-.483-.12-.837-.292-1.063-.172-.226-.528-.339-1.069-.339-.465 0-.815.065-1.05.195a1.701 1.701 0 0 0-.604.583 5.9 5.9 0 0 1-.355.513c-.069.083-.218.124-.446.124a.781.781 0 0 1-.533-.197.645.645 0 0 1-.225-.507c0-.322.114-.635.342-.939.228-.304.584-.554 1.066-.751.483-.197 1.085-.295 1.805-.295.804 0 1.437.095 1.898.285.46.19.785.491.975.902.19.411.286.957.286 1.637V11h-.926a.828.828 0 0 1-.654-.288c-.136-.157-.217-.368-.243-.634Zm.025-2.76a9.333 9.333 0 0 1-1.17.312c-.512.109-.867.19-1.063.241a1.454 1.454 0 0 0-.564.302c-.179.15-.268.359-.268.627 0 .277.105.513.315.708.21.194.485.291.825.291.362 0 .697-.079 1.003-.238.306-.158.531-.363.674-.613.165-.278.248-.734.248-1.369v-.261Zm-5.591-.483V8.72c0 .25-.024.45-.074.6a.948.948 0 0 1-.271.406c-.132.12-.301.237-.507.348a7.973 7.973 0 0 1-1.717.705 6.944 6.944 0 0 1-1.797.221c-.756 0-1.444-.116-2.066-.349a4.335 4.335 0 0 1-1.589-1.013 4.474 4.474 0 0 1-1.01-1.609c-.234-.631-.352-1.335-.352-2.113 0-.764.114-1.464.342-2.099a4.31 4.31 0 0 1 1.006-1.616 4.421 4.421 0 0 1 1.617-1.017c.635-.234 1.354-.352 2.159-.352.662 0 1.248.089 1.758.265.509.177.923.399 1.24.668.318.268.557.552.718.851.161.3.241.566.241.798a.85.85 0 0 1-.278.641.933.933 0 0 1-.667.265.946.946 0 0 1-.745-.382 7.811 7.811 0 0 0-.624-.872 2.014 2.014 0 0 0-.687-.497c-.288-.134-.656-.201-1.103-.201-.461 0-.872.08-1.234.238a2.544 2.544 0 0 0-.929.691 3.114 3.114 0 0 0-.59 1.11 4.86 4.86 0 0 0-.205 1.456c0 1.153.265 2.041.795 2.662.53.622 1.268.932 2.216.932.461 0 .894-.06 1.298-.181.405-.12.815-.293 1.231-.516V7.164h-1.543c-.371 0-.651-.056-.841-.168-.19-.112-.285-.302-.285-.57 0-.219.079-.4.238-.543.158-.143.374-.215.647-.215h2.26c.277 0 .512.025.704.074a.793.793 0 0 1 .466.328c.119.17.178.425.178.765Zm-14.22.892h-3.581c.004.416.088.783.251 1.1.163.317.38.557.651.718.27.161.569.241.895.241.219 0 .419-.026.6-.077.182-.051.357-.132.527-.242a3.85 3.85 0 0 0 .469-.352c.143-.125.329-.295.557-.509.094-.081.228-.121.402-.121.188 0 .34.051.457.154.116.103.174.248.174.436 0 .166-.065.359-.195.58a2.281 2.281 0 0 1-.586.637 3.341 3.341 0 0 1-.986.507 4.253 4.253 0 0 1-1.365.201c-1.176 0-2.091-.335-2.743-1.006-.653-.671-.98-1.581-.98-2.73 0-.541.081-1.043.242-1.505.161-.463.396-.86.704-1.191a3.052 3.052 0 0 1 1.14-.761 4.09 4.09 0 0 1 1.503-.265c.715 0 1.329.151 1.841.453.512.301.895.692 1.15 1.17.255.478.382.966.382 1.462 0 .461-.132.759-.395.895-.264.137-.635.205-1.114.205Zm-3.581-1.04h3.32c-.045-.626-.214-1.094-.507-1.405-.293-.31-.678-.466-1.157-.466-.456 0-.83.158-1.123.473-.293.315-.471.781-.533 1.398ZM25.886 11V1.946c0-.367.082-.644.245-.832.163-.188.383-.282.66-.282.278 0 .501.093.671.279.17.185.255.464.255.835v7.941c0 .371-.086.649-.258.835a.871.871 0 0 1-.668.278h-.905Zm-2.13 0a.828.828 0 0 1-.654-.288c-.168-.193-.252-.468-.252-.825V4.649c0-.363.084-.635.252-.819a.847.847 0 0 1 .654-.275.88.88 0 0 1 .664.275c.174.184.261.438.261.765V11h-.925Zm.02-8.296a.969.969 0 0 1-.654-.235c-.181-.157-.272-.378-.272-.664 0-.26.093-.473.279-.641a.936.936 0 0 1 .647-.251c.237 0 .447.076.63.228.184.152.275.373.275.664 0 .282-.089.502-.268.66a.927.927 0 0 1-.637.239ZM15.328 11V2.221c0-.287.042-.52.127-.701a.794.794 0 0 1 .399-.396c.182-.083.413-.124.695-.124h4.694c.318 0 .554.07.708.211a.716.716 0 0 1 .231.554.723.723 0 0 1-.231.56c-.154.14-.39.211-.708.211H17.32v2.515h3.28c.304 0 .531.068.68.205a.7.7 0 0 1 .225.546.687.687 0 0 1-.228.543c-.152.135-.378.202-.677.202h-3.28v3.239c0 .411-.093.717-.278.916a.934.934 0 0 1-.715.298h-.999Z" fill="#309f76"/></svg>