<svg viewBox="0 0 62 11" xmlns="http://www.w3.org/2000/svg"><path d="M0 8.879V5a1 1 0 0 1 1-1h1a1 1 0 0 1 1 1h1v1.5H3c-.398 0-.779.158-1.061.439L0 8.879ZM6 6.5V5h2a1 1 0 0 1 1 1v.5H6Z" fill="#ca7e77"/><path d="M.293 9.293A1 1 0 0 0 1 11h7c.265 0 .52-.105.707-.293l2-2A1 1 0 0 0 10 7H3a.997.997 0 0 0-.707.293l-2 2Z" fill="#f6be6e"/><path d="M4.5 6.5v-2C4.5 2.568 6.068 1 8 1a3.504 3.504 0 0 1-2.5 3.355V6.5h-1Zm.538-4.687c-.392.432-.691.95-.865 1.522C2.898 2.796 2 1.505 2 0c1.299 0 2.434.73 3.038 1.813Zm8.96 7.686V3.455c0-.198.031-.357.087-.482a.554.554 0 0 1 .273-.273 1.2 1.2 0 0 1 .482-.087h3.23c.219 0 .382.05.485.15a.47.47 0 0 1 .163.379.488.488 0 0 1-.163.385c-.103.097-.266.144-.485.144h-2.701v1.731h2.26c.209 0 .363.05.466.144a.48.48 0 0 1 .157.375.475.475 0 0 1-.157.373c-.106.094-.26.137-.466.137h-2.26v2.768a.3.3 0 0 1-.3.3h-1.071Zm5.355 0a.3.3 0 0 1-.3-.3V5.126c0-.25.056-.438.169-.563.119-.125.269-.191.454-.191s.338.066.457.191.181.3.181.526v4.41h-.961Zm.335-5.713a.66.66 0 0 1-.45-.162c-.122-.107-.185-.26-.185-.457a.57.57 0 0 1 .188-.439.658.658 0 0 1 .447-.175c.166 0 .31.053.435.157.126.106.191.26.191.457a.586.586 0 0 1-.184.457.644.644 0 0 1-.442.162Zm1.456 5.713V3.264c0-.251.053-.442.166-.573.112-.128.266-.191.457-.191s.344.063.46.191c.119.128.175.319.175.573v5.935a.3.3 0 0 1-.3.3h-.958Zm5.606-2.254h-2.464c.004.285.06.539.17.758.115.219.262.382.447.494.188.11.395.166.62.166.15 0 .288-.019.41-.05a1.52 1.52 0 0 0 .366-.166c.116-.078.226-.159.323-.247.097-.085.225-.204.381-.351a.437.437 0 0 1 .279-.081c.128 0 .235.034.313.106.081.069.122.169.122.301 0 .113-.047.247-.135.401-.09.15-.225.297-.406.438a2.363 2.363 0 0 1-.68.347 2.923 2.923 0 0 1-.936.138c-.81 0-1.439-.232-1.89-.692-.448-.463-.673-1.089-.673-1.881 0-.373.056-.717.166-1.033a2.24 2.24 0 0 1 .485-.823c.213-.229.473-.401.786-.52a2.734 2.734 0 0 1 1.033-.188c.494 0 .914.107 1.264.317.354.206.62.472.795.801.175.332.263.667.263 1.008 0 .316-.091.522-.272.62-.182.09-.435.137-.767.137Zm-2.464-.717h2.285c-.031-.428-.147-.751-.35-.964-.2-.216-.466-.322-.795-.322-.313 0-.573.11-.776.329-.201.212-.323.535-.364.957Zm12.255.104v1.296c0 .172-.016.313-.05.416a.649.649 0 0 1-.191.278 1.649 1.649 0 0 1-.344.238 5.43 5.43 0 0 1-1.184.486 4.702 4.702 0 0 1-1.236.153c-.523 0-.995-.081-1.424-.241a2.968 2.968 0 0 1-1.093-.698 3.07 3.07 0 0 1-.698-1.108 4.185 4.185 0 0 1-.241-1.453c0-.525.079-1.007.235-1.446.16-.438.388-.807.695-1.114a3.023 3.023 0 0 1 1.111-.695 4.24 4.24 0 0 1 1.487-.244c.457 0 .861.059 1.211.185.351.119.636.272.855.457.216.184.382.378.491.585.113.207.169.388.169.548a.587.587 0 0 1-.194.444.647.647 0 0 1-.97-.081 5.317 5.317 0 0 0-.429-.601 1.33 1.33 0 0 0-.476-.341c-.197-.094-.45-.141-.757-.141-.32 0-.601.056-.852.166a1.796 1.796 0 0 0-.641.476c-.176.206-.31.46-.407.763a3.458 3.458 0 0 0-.138 1.002c0 .795.182 1.405.545 1.834.366.426.876.642 1.53.642.316 0 .614-.044.889-.125.282-.085.564-.204.852-.357V6.857h-1.065c-.253 0-.447-.037-.579-.116-.131-.075-.194-.206-.194-.391 0-.15.054-.275.16-.376a.66.66 0 0 1 .448-.147h1.555c.191 0 .354.019.485.05a.53.53 0 0 1 .32.229c.084.116.125.291.125.526Zm3.932 2.156a3.94 3.94 0 0 1-.887.535 2.483 2.483 0 0 1-.956.176c-.324 0-.608-.063-.855-.189a1.43 1.43 0 0 1-.563-.522 1.346 1.346 0 0 1-.199-.712c0-.345.109-.639.328-.882.219-.243.519-.407.901-.49.08-.018.279-.06.596-.125.317-.064.588-.123.813-.175.228-.056.474-.122.739-.199-.015-.332-.083-.576-.203-.73-.117-.157-.362-.235-.735-.235-.32 0-.562.044-.725.134-.16.089-.299.223-.416.402a3.787 3.787 0 0 1-.245.355c-.046.056-.148.083-.305.083a.548.548 0 0 1-.369-.134.452.452 0 0 1-.153-.351c0-.221.079-.437.236-.646.157-.21.402-.382.734-.518.333-.135.747-.203 1.243-.203.555 0 .99.066 1.307.199.318.129.541.335.67.619.133.283.199.659.199 1.127 0 .296-.002.547-.005.753v.071c0 .187-.002.393-.004.617 0 .047.001.095.004.143v1.608h-.85a.301.301 0 0 1-.3-.3v-.411Zm-.083-1.825c-.185.068-.454.14-.809.217a14.93 14.93 0 0 0-.729.166.952.952 0 0 0-.388.208.525.525 0 0 0-.185.43c0 .191.072.354.217.489.145.133.334.199.568.199.25 0 .479-.054.688-.162.213-.11.368-.252.467-.425.114-.191.171-.505.171-.942v-.18Zm2.035 2.536V5.223c0-.566.204-.851.614-.851.21 0 .36.069.451.2.094.132.144.329.153.585.15-.256.304-.453.463-.585.16-.131.373-.2.636-.2.266 0 .522.069.77.2.25.132.375.307.375.526a.497.497 0 0 1-.162.382.481.481 0 0 1-.342.15c-.047 0-.156-.028-.338-.084a1.439 1.439 0 0 0-.463-.088.682.682 0 0 0-.454.147.952.952 0 0 0-.272.432c-.066.188-.11.416-.135.682-.025.26-.037.583-.037.961v1.519a.3.3 0 0 1-.3.3h-.959Zm7.423-.841a3.232 3.232 0 0 1-.504.476 1.915 1.915 0 0 1-.535.272 1.917 1.917 0 0 1-.629.097c-.301 0-.579-.063-.839-.191a1.943 1.943 0 0 1-.664-.548 2.569 2.569 0 0 1-.432-.836 3.666 3.666 0 0 1-.141-1.039c0-.789.191-1.402.576-1.843.385-.439.892-.661 1.518-.661.364 0 .67.066.921.191.25.122.491.313.729.573V3.287c0-.257.05-.454.153-.586.104-.131.251-.197.442-.197s.338.059.438.185c.106.119.16.297.16.535v6.279h-.893a.3.3 0 0 1-.3-.3v-.545ZM47.369 6.93c0 .341.053.632.156.873.107.241.254.423.439.545a1.131 1.131 0 0 0 1.211.009c.185-.116.329-.294.438-.532.11-.238.166-.538.166-.895 0-.335-.056-.623-.166-.864a1.293 1.293 0 0 0-.444-.554 1.051 1.051 0 0 0-1.227.006 1.258 1.258 0 0 0-.426.564 2.27 2.27 0 0 0-.147.848Zm7.982.319h-2.467c.003.285.06.539.172.758.113.219.263.382.448.494.188.11.394.166.617.166.153 0 .288-.019.413-.05a1.5 1.5 0 0 0 .363-.166c.119-.078.225-.159.325-.247.097-.085.226-.204.382-.351a.428.428 0 0 1 .276-.081c.131 0 .234.034.316.106.078.069.119.169.119.301a.818.818 0 0 1-.135.401c-.087.15-.222.297-.404.438a2.397 2.397 0 0 1-.679.347 2.956 2.956 0 0 1-.939.138c-.807 0-1.44-.232-1.887-.692-.451-.463-.673-1.089-.673-1.881 0-.373.053-.717.166-1.033a2.24 2.24 0 0 1 .485-.823 2.02 2.02 0 0 1 .782-.52 2.768 2.768 0 0 1 1.036-.188c.492 0 .914.107 1.265.317.354.206.62.472.795.801.175.332.263.667.263 1.008 0 .316-.091.522-.272.62-.182.09-.439.137-.767.137Zm-2.467-.717h2.285c-.031-.428-.147-.751-.35-.964-.201-.216-.464-.322-.795-.322-.313 0-.57.11-.774.329-.2.212-.322.535-.366.957Zm4.057 2.971v-4.41c0-.241.053-.42.156-.536a.55.55 0 0 1 .432-.181c.11 0 .21.028.298.081.09.05.162.129.212.235a.785.785 0 0 1 .085.382v.153c.222-.294.463-.507.723-.641.266-.138.57-.21.911-.21.332 0 .629.075.892.219.26.144.457.347.585.613.085.154.138.32.163.498.025.179.038.407.038.686v2.811a.3.3 0 0 1-.3.3h-.659a.3.3 0 0 1-.3-.3V6.636c0-.417-.056-.733-.175-.952-.113-.222-.341-.332-.689-.332-.222 0-.428.066-.613.204a1.136 1.136 0 0 0-.407.548c-.059.187-.091.538-.091 1.051v2.048a.3.3 0 0 1-.3.3h-.961Z" fill="#009e76"/></svg>