<svg viewBox="0 0 62 11" xmlns="http://www.w3.org/2000/svg"><path d="M0 8.879V5a1 1 0 0 1 1-1h1a1 1 0 0 1 1 1h1v1.5H3c-.398 0-.779.158-1.061.439L0 8.879ZM6 6.5V5h2a1 1 0 0 1 1 1v.5H6Z" fill="#ca7e77"/><path d="M.293 9.293A1 1 0 0 0 1 11h7c.265 0 .52-.105.707-.293l2-2A1 1 0 0 0 10 7H3a.997.997 0 0 0-.707.293l-2 2Z" fill="#f6be6e"/><path d="M14 9.503V3.456c0-.197.029-.357.088-.48a.536.536 0 0 1 .272-.273c.127-.058.287-.088.481-.088h3.233c.219 0 .381.05.486.148a.485.485 0 0 1 .161.379c0 .16-.054.29-.161.388-.105.096-.267.143-.486.143h-2.702v1.733h2.259c.209 0 .365.047.467.143a.475.475 0 0 1 .157.374.475.475 0 0 1-.157.374c-.105.093-.261.139-.467.139h-2.259v2.231c0 .28-.063.49-.189.628a.652.652 0 0 1-.499.208H14ZM4.5 6.5v-2C4.5 2.568 6.068 1 8 1a3.504 3.504 0 0 1-2.5 3.355V6.5h-1Zm.538-4.687c-.392.432-.691.95-.865 1.522C2.898 2.796 2 1.505 2 0c1.299 0 2.434.73 3.038 1.813Zm14.767 7.69a.577.577 0 0 1-.453-.198c-.114-.133-.171-.322-.171-.569V5.129c0-.25.057-.438.171-.564a.59.59 0 0 1 .453-.189c.185 0 .337.063.457.189s.181.302.181.527v4.411h-.638Zm.014-5.714a.673.673 0 0 1-.453-.162c-.123-.108-.185-.26-.185-.457 0-.179.063-.325.19-.439a.647.647 0 0 1 .448-.176.66.66 0 0 1 .434.158c.126.104.19.257.19.457a.584.584 0 0 1-.185.457.644.644 0 0 1-.439.162Zm1.453 5.714V3.267c0-.253.056-.444.166-.573a.582.582 0 0 1 .458-.194c.191 0 .345.065.462.194.117.126.175.317.175.573v5.469c0 .256-.06.449-.18.578a.594.594 0 0 1-.457.189h-.624Zm34.216-2.254h-2.467c.003.286.06.539.171.758.114.218.263.383.448.494.188.111.394.166.619.166.151 0 .288-.017.411-.051.127-.037.248-.092.365-.166.117-.077.225-.159.324-.245.098-.086.226-.203.383-.351a.416.416 0 0 1 .277-.083c.13 0 .234.035.314.106a.38.38 0 0 1 .12.3.826.826 0 0 1-.134.402 1.594 1.594 0 0 1-.406.439 2.309 2.309 0 0 1-.679.347 2.917 2.917 0 0 1-.938.138c-.81 0-1.44-.231-1.889-.693-.45-.462-.675-1.088-.675-1.88 0-.372.056-.717.166-1.035.111-.32.273-.594.486-.822.212-.228.474-.402.785-.522a2.792 2.792 0 0 1 1.035-.185c.492 0 .914.105 1.265.314.355.207.619.475.795.804.176.33.263.665.263 1.007 0 .318-.091.524-.272.619-.182.093-.438.139-.767.139Zm-2.467-.716h2.287c-.031-.431-.148-.753-.351-.966-.201-.215-.465-.323-.795-.323-.314 0-.573.109-.776.328-.2.216-.322.536-.365.961Zm-10.457 2.97V5.226c0-.567.205-.85.614-.85.21 0 .361.066.453.198.092.133.143.328.153.587.15-.259.304-.454.461-.587.161-.132.373-.198.638-.198s.522.066.771.198c.25.133.375.308.375.527a.502.502 0 0 1-.162.383.49.49 0 0 1-.342.148c-.046 0-.159-.028-.337-.083a1.489 1.489 0 0 0-.467-.088.676.676 0 0 0-.452.148.92.92 0 0 0-.273.43 3.014 3.014 0 0 0-.134.683c-.025.262-.037.582-.037.961v1.053c0 .256-.06.449-.18.578a.605.605 0 0 1-.457.189h-.624Zm-2.061-.628a3.851 3.851 0 0 1-.778.453 2.488 2.488 0 0 1-.957.175 1.85 1.85 0 0 1-.854-.189 1.424 1.424 0 0 1-.564-.522 1.354 1.354 0 0 1-.198-.712c0-.344.109-.639.328-.882.218-.243.519-.406.9-.49.08-.018.279-.06.596-.124a16.709 16.709 0 0 0 1.553-.374c-.016-.333-.084-.576-.204-.73-.117-.157-.362-.236-.734-.236-.321 0-.562.045-.726.134-.16.089-.298.223-.415.402a4.062 4.062 0 0 1-.245.356c-.046.055-.148.083-.305.083a.554.554 0 0 1-.37-.134.457.457 0 0 1-.152-.351c0-.222.079-.438.236-.647.157-.209.401-.382.734-.517.333-.136.747-.204 1.243-.204.554 0 .99.067 1.307.199.317.129.541.336.67.619.132.283.199.659.199 1.127 0 .296-.002.547-.005.753 0 .207-.004.459-.005.688v1.751h-.623a.606.606 0 0 1-.458-.189.73.73 0 0 1-.173-.439Zm.026-1.908c-.185.068-.455.14-.809.217-.351.074-.594.13-.73.167a.955.955 0 0 0-.388.207.527.527 0 0 0-.185.43c0 .191.073.354.218.49.144.132.334.198.568.198.249 0 .479-.053.688-.161a1.11 1.11 0 0 0 .467-.425c.114-.191.171-.505.171-.943v-.18Zm10.05 2.536a.558.558 0 0 1-.429-.184c-.111-.127-.167-.305-.167-.536v-.125a3.229 3.229 0 0 1-.503.476 1.941 1.941 0 0 1-1.164.369c-.302 0-.583-.063-.841-.189a1.975 1.975 0 0 1-.665-.55 2.517 2.517 0 0 1-.43-.836 3.604 3.604 0 0 1-.143-1.039c0-.789.192-1.403.577-1.844.385-.44.892-.66 1.52-.66.363 0 .67.063.919.189.25.123.493.314.73.573V3.285c0-.258.051-.454.153-.586a.53.53 0 0 1 .443-.199c.191 0 .337.062.439.185.105.12.157.299.157.536v6.282h-.596ZM47.502 6.93c0 .342.053.633.158.873.107.241.254.422.438.545.185.121.387.181.606.181.221 0 .423-.057.605-.171.185-.117.331-.294.439-.532.11-.24.166-.539.166-.896 0-.335-.056-.623-.166-.864a1.262 1.262 0 0 0-.444-.554 1.043 1.043 0 0 0-.61-.194c-.231 0-.437.066-.619.199a1.264 1.264 0 0 0-.425.563 2.264 2.264 0 0 0-.148.85Zm9.578 2.573V5.092c0-.241.052-.419.157-.536a.541.541 0 0 1 .43-.18.544.544 0 0 1 .512.314.8.8 0 0 1 .083.383v.153c.222-.293.464-.507.726-.643a1.94 1.94 0 0 1 .91-.207c.332 0 .63.072.891.217.262.144.458.349.587.614.083.154.137.32.162.499.024.179.037.407.037.684v2.346c0 .253-.059.444-.176.573a.566.566 0 0 1-.448.194.581.581 0 0 1-.457-.198c-.117-.133-.176-.322-.176-.569V6.635c0-.416-.058-.733-.175-.952-.114-.222-.344-.333-.689-.333-.225 0-.429.068-.614.204-.185.132-.32.315-.407.549-.061.188-.092.539-.092 1.054v1.579c0 .256-.06.449-.18.578a.597.597 0 0 1-.458.189h-.623ZM26.883 7.249h-2.467c.003.286.06.539.171.758.114.218.264.383.448.494.188.111.395.166.619.166.151 0 .288-.017.411-.051.127-.037.248-.092.365-.166.117-.077.225-.159.324-.245.098-.086.226-.203.383-.351a.416.416 0 0 1 .277-.083c.13 0 .234.035.315.106a.38.38 0 0 1 .12.3c0 .114-.045.248-.134.402-.09.151-.225.298-.407.439a2.296 2.296 0 0 1-.679.347 2.917 2.917 0 0 1-.938.138c-.81 0-1.439-.231-1.889-.693-.45-.462-.675-1.088-.675-1.88 0-.372.056-.717.167-1.035a2.28 2.28 0 0 1 .485-.822c.212-.228.474-.402.785-.522a2.792 2.792 0 0 1 1.035-.185c.493 0 .915.105 1.266.314.354.207.619.475.794.804.176.33.264.665.264 1.007 0 .318-.091.524-.273.619-.182.093-.437.139-.767.139Zm-2.467-.716h2.287c-.031-.431-.148-.753-.351-.966-.2-.215-.465-.323-.795-.323-.314 0-.573.109-.776.328-.2.216-.322.536-.365.961Zm12.262.102v1.298c0 .172-.017.311-.051.415a.652.652 0 0 1-.19.278 1.68 1.68 0 0 1-.346.24c-.41.222-.804.383-1.183.485a4.745 4.745 0 0 1-1.238.152c-.52 0-.994-.08-1.423-.24a2.992 2.992 0 0 1-1.094-.697 3.105 3.105 0 0 1-.698-1.109 4.182 4.182 0 0 1-.24-1.455c0-.527.078-1.009.235-1.446.157-.438.388-.809.693-1.114a3.023 3.023 0 0 1 1.114-.697 4.235 4.235 0 0 1 1.487-.245c.456 0 .859.062 1.211.185.351.12.635.272.854.457.219.185.384.38.494.587.111.206.167.389.167.55 0 .172-.065.32-.194.443a.642.642 0 0 1-.458.18.634.634 0 0 1-.512-.263 5.594 5.594 0 0 0-.43-.601 1.399 1.399 0 0 0-.476-.342c-.197-.092-.449-.138-.757-.138-.318 0-.601.055-.85.166-.25.108-.464.267-.643.476-.175.206-.311.46-.406.762a3.43 3.43 0 0 0-.139 1.003c0 .794.182 1.406.545 1.834.367.428.877.642 1.53.642.317 0 .614-.042.891-.125a4.49 4.49 0 0 0 .85-.356V6.861h-1.062c-.256 0-.45-.039-.582-.116-.13-.077-.194-.207-.194-.392 0-.151.053-.276.161-.374.111-.099.26-.148.448-.148h1.557c.191 0 .353.017.485.051a.532.532 0 0 1 .319.226c.083.117.125.292.125.527Z" fill="#309f76"/></svg>