<svg viewBox="0 0 62 11" xmlns="http://www.w3.org/2000/svg"><path d="M0 8.879V5c0-.549.451-1 1-1h1c.549 0 1 .451 1 1h1v1.5H3c-.398 0-.779.158-1.061.439L0 8.879ZM6 6.5V5h2c.549 0 1 .451 1 1v.5H6Z" fill="#ca7e77"/><path d="M.293 9.293A1.002 1.002 0 0 0 0 10c0 .549.451 1 1 1h7c.265 0 .52-.105.707-.293l2-2C10.894 8.52 11 8.265 11 8c0-.549-.451-1-1-1H3a.997.997 0 0 0-.707.293l-2 2Z" fill="#f6be6e"/><path d="M5.038 1.813c-.392.432-.691.95-.865 1.522C2.898 2.796 2 1.505 2 0c1.299 0 2.434.73 3.038 1.813ZM4.5 6.5v-2C4.5 2.568 6.068 1 8 1a3.512 3.512 0 0 1-2.5 3.355V6.5h-1Zm9.5 3V3.428c0-.198.029-.359.088-.482a.538.538 0 0 1 .274-.274c.127-.059.287-.088.482-.088h3.247c.22 0 .382.049.487.148a.483.483 0 0 1 .163.381.5.5 0 0 1-.163.389c-.105.096-.267.144-.487.144h-2.713v1.739h2.268c.21 0 .366.048.469.144a.476.476 0 0 1 .157.376.476.476 0 0 1-.157.376c-.106.093-.262.139-.469.139h-2.268v2.24c0 .285-.065.497-.195.636a.643.643 0 0 1-.492.204H14Zm5.829 0a.58.58 0 0 1-.455-.199c-.114-.133-.171-.324-.171-.571V5.107c0-.25.057-.439.171-.566a.592.592 0 0 1 .455-.19c.186 0 .339.063.459.19.121.127.181.303.181.529V9.5h-.64Zm.014-5.738a.68.68 0 0 1-.455-.162c-.123-.109-.185-.262-.185-.46 0-.179.063-.326.19-.44a.65.65 0 0 1 .45-.177c.164 0 .309.053.436.158.127.105.19.258.19.459a.59.59 0 0 1-.185.46.65.65 0 0 1-.441.162ZM21.302 9.5V3.238c0-.254.056-.446.167-.575a.583.583 0 0 1 .459-.195c.192 0 .347.065.464.195.118.126.177.318.177.575V8.73c0 .257-.061.45-.181.58a.598.598 0 0 1-.46.19h-.626Zm5.634-2.264h-2.477c.003.288.061.542.172.761.114.22.264.385.45.496.188.112.396.167.621.167.152 0 .29-.017.413-.051.127-.037.249-.092.367-.167.117-.077.225-.159.324-.245.099-.087.228-.205.385-.353a.415.415 0 0 1 .279-.084c.13 0 .235.036.315.107a.38.38 0 0 1 .121.302c0 .114-.045.249-.135.403a1.594 1.594 0 0 1-.408.441 2.316 2.316 0 0 1-.682.348 2.908 2.908 0 0 1-.941.139c-.814 0-1.446-.232-1.898-.696-.451-.464-.677-1.093-.677-1.888 0-.374.056-.72.167-1.039.111-.321.274-.597.487-.825.214-.229.476-.404.789-.525a2.81 2.81 0 0 1 1.039-.185c.495 0 .918.105 1.271.315.355.207.621.476.798.807.176.331.264.668.264 1.012 0 .318-.091.525-.274.621-.182.093-.439.139-.77.139Zm-2.477-.719h2.296c-.031-.433-.148-.756-.352-.969-.201-.217-.467-.325-.798-.325-.315 0-.575.11-.779.329-.201.217-.323.539-.367.965Zm12.312.102v1.304c0 .173-.017.312-.051.417a.655.655 0 0 1-.19.279c-.09.083-.206.164-.348.241a5.486 5.486 0 0 1-1.187.487 4.796 4.796 0 0 1-1.244.153c-.522 0-.998-.08-1.428-.241a2.999 2.999 0 0 1-1.1-.701 3.117 3.117 0 0 1-.7-1.113 4.193 4.193 0 0 1-.241-1.461c0-.529.079-1.013.236-1.452.158-.439.39-.812.696-1.118a3.02 3.02 0 0 1 1.118-.7 4.248 4.248 0 0 1 1.494-.246c.457 0 .862.062 1.215.185.353.121.639.274.858.46.22.185.385.381.497.589.111.207.166.391.166.552a.589.589 0 0 1-.194.445.642.642 0 0 1-.46.181.634.634 0 0 1-.514-.265 5.727 5.727 0 0 0-.432-.603 1.387 1.387 0 0 0-.478-.343c-.198-.093-.451-.139-.76-.139-.319 0-.603.056-.854.167a1.76 1.76 0 0 0-.645.478 2.183 2.183 0 0 0-.408.765 3.424 3.424 0 0 0-.139 1.007c0 .798.182 1.411.547 1.841.368.43.88.645 1.536.645.318 0 .617-.042.895-.125.281-.084.566-.203.854-.357V6.847h-1.067c-.257 0-.452-.039-.585-.116-.13-.078-.195-.209-.195-.395 0-.151.054-.276.163-.375a.652.652 0 0 1 .45-.149h1.563c.192 0 .354.017.487.051.133.034.24.11.32.228.083.117.125.293.125.528Zm3.85 2.243a3.844 3.844 0 0 1-.79.462 2.507 2.507 0 0 1-.96.176 1.85 1.85 0 0 1-.858-.19 1.428 1.428 0 0 1-.566-.524c-.133-.22-.2-.458-.2-.715 0-.346.11-.641.33-.886.219-.244.521-.408.904-.491.08-.019.28-.061.598-.126.319-.065.591-.123.817-.176.229-.056.476-.122.742-.199-.015-.334-.083-.579-.204-.733-.118-.158-.363-.237-.738-.237-.321 0-.564.045-.728.135-.161.089-.3.224-.417.403-.115.18-.197.299-.246.357-.047.056-.149.084-.306.084a.55.55 0 0 1-.371-.135.452.452 0 0 1-.154-.352c0-.223.079-.439.237-.65.158-.21.404-.383.738-.519.334-.136.75-.204 1.247-.204.557 0 .995.066 1.313.199a1.2 1.2 0 0 1 .673.622c.133.284.199.662.199 1.132V9.5h-.64a.581.581 0 0 1-.45-.195.74.74 0 0 1-.17-.443Zm.017-1.909a6.518 6.518 0 0 1-.812.218c-.352.075-.597.13-.733.167a.958.958 0 0 0-.389.209.528.528 0 0 0-.186.432.65.65 0 0 0 .218.491c.146.133.336.2.571.2.25 0 .481-.054.691-.163a1.11 1.11 0 0 0 .468-.426c.115-.192.172-.508.172-.947v-.181Zm3.31.719V8.73c0 .257-.06.45-.181.58a.603.603 0 0 1-.459.19h-.626V5.205c0-.569.205-.854.617-.854.21 0 .362.067.454.2.093.133.144.329.153.589.152-.26.307-.456.464-.589.161-.133.374-.2.64-.2s.525.067.775.2c.251.133.376.309.376.528a.504.504 0 0 1-.163.385.491.491 0 0 1-.343.149 1.65 1.65 0 0 1-.338-.084 1.535 1.535 0 0 0-.469-.088.68.68 0 0 0-.454.149.911.911 0 0 0-.274.431c-.065.192-.11.421-.135.687-.024.262-.037.584-.037.964Zm6.184 1.104v-.125c-.17.195-.339.354-.506.478a1.956 1.956 0 0 1-1.169.371c-.303 0-.584-.063-.844-.19a2.001 2.001 0 0 1-.668-.552 2.53 2.53 0 0 1-.431-.84 3.627 3.627 0 0 1-.144-1.043c0-.792.193-1.409.58-1.851.386-.443.895-.664 1.526-.664.365 0 .672.064.923.191.25.123.495.315.733.575v-1.87c0-.259.051-.456.153-.589a.533.533 0 0 1 .445-.199c.192 0 .339.062.441.185.105.121.158.3.158.538V9.5h-.599a.561.561 0 0 1-.431-.186c-.112-.126-.167-.306-.167-.538Zm-2.491-1.86c0 .344.052.636.157.877.109.241.256.424.441.547.186.121.388.181.608.181.222 0 .425-.057.607-.171.186-.118.333-.296.441-.534.111-.241.167-.541.167-.9a2.06 2.06 0 0 0-.167-.867 1.273 1.273 0 0 0-.445-.557 1.045 1.045 0 0 0-.612-.195c-.232 0-.44.067-.622.2-.182.13-.325.318-.427.566a2.26 2.26 0 0 0-.148.853Zm8.018.32h-2.477c.003.288.06.542.172.761.114.22.264.385.45.496.188.112.396.167.621.167.152 0 .289-.017.413-.051.127-.037.249-.092.367-.167.117-.077.225-.159.324-.245.099-.087.228-.205.385-.353a.415.415 0 0 1 .279-.084c.129 0 .235.036.315.107.08.071.121.172.121.302 0 .114-.045.249-.135.403-.09.152-.226.299-.408.441a2.316 2.316 0 0 1-.682.348 2.91 2.91 0 0 1-.942.139c-.813 0-1.445-.232-1.897-.696-.451-.464-.677-1.093-.677-1.888 0-.374.056-.72.167-1.039.111-.321.274-.597.487-.825.213-.229.476-.404.789-.525a2.81 2.81 0 0 1 1.039-.185c.494 0 .918.105 1.271.315.355.207.621.476.797.807.177.331.265.668.265 1.012 0 .318-.091.525-.274.621-.182.093-.439.139-.77.139Zm-2.477-.719h2.296c-.031-.433-.148-.756-.352-.969-.201-.217-.467-.325-.798-.325-.316 0-.575.11-.779.329-.201.217-.324.539-.367.965Zm5.263-1.465v.153c.223-.294.466-.509.728-.645.266-.139.571-.209.914-.209.334 0 .633.073.896.218.262.145.459.351.589.617.083.155.137.322.162.501.025.179.037.408.037.687V8.73c0 .254-.059.445-.176.575a.572.572 0 0 1-.45.195.582.582 0 0 1-.459-.199c-.118-.133-.177-.324-.177-.571V6.619c0-.417-.058-.736-.176-.955-.114-.223-.345-.334-.691-.334a1.02 1.02 0 0 0-.617.204 1.14 1.14 0 0 0-.408.552c-.062.189-.093.541-.093 1.058V8.73c0 .257-.06.45-.181.58a.595.595 0 0 1-.459.19h-.626V5.07c0-.241.052-.421.157-.538a.543.543 0 0 1 .432-.181.55.55 0 0 1 .515.316.82.82 0 0 1 .083.385Z" fill="#309f76"/></svg>